<svg width="40" height="40" viewBox="0 0 40 40" fill="none" xmlns="http://www.w3.org/2000/svg">
<g clip-path="url(#clip0_1_104)">
<path fill-rule="evenodd" clip-rule="evenodd" d="M30.64 37.965C31.1767 38.345 31.8683 38.44 32.485 38.2067C33.1017 37.9717 33.555 37.445 33.6917 36.8067C35.14 30 38.6533 12.7717 39.9716 6.58C40.0717 6.11334 39.905 5.62834 39.5383 5.31667C39.1716 5.005 38.6633 4.915 38.21 5.08334C31.2217 7.67 9.69999 15.745 0.903325 19C0.344992 19.2067 -0.0183416 19.7433 -8.29733e-06 20.3317C0.0199917 20.9217 0.416658 21.4333 0.988325 21.605C4.93332 22.785 10.1117 24.4267 10.1117 24.4267C10.1117 24.4267 12.5317 31.735 13.7933 35.4517C13.9517 35.9184 14.3167 36.285 14.7983 36.4117C15.2783 36.5367 15.7917 36.405 16.15 36.0667C18.1767 34.1534 21.31 31.195 21.31 31.195C21.31 31.195 27.2633 35.56 30.64 37.965ZM12.29 23.5033L15.0883 32.7334L15.71 26.8883C15.71 26.8883 26.5217 17.1367 32.685 11.5783C32.865 11.415 32.89 11.1417 32.74 10.95C32.5917 10.7583 32.3183 10.7133 32.1133 10.8433C24.97 15.405 12.29 23.5033 12.29 23.5033Z" fill="#4770FF"/>
</g>
<defs>
<clipPath id="clip0_1_104">
<rect width="40" height="40" fill="white"/>
</clipPath>
</defs>
</svg>
