<svg width="40" height="40" viewBox="0 0 40 40" fill="none" xmlns="http://www.w3.org/2000/svg">
<g clip-path="url(#clip0_1_100)">
<path d="M21.9367 31.6566C22.9517 31.6566 23.3667 30.9799 23.355 30.1316C23.3033 26.9366 24.545 25.2166 26.7867 27.4583C29.2667 29.9383 29.78 31.6566 32.7917 31.6566H38.125C39.4717 31.6566 40.0017 31.2233 40.0017 30.5433C40.0017 29.1049 37.6333 26.5666 35.6267 24.7033C32.8167 22.0949 32.685 22.0333 35.105 18.8933C38.1067 14.9949 42.0333 9.99992 38.56 9.99992H31.925C30.6383 9.99992 30.545 10.7249 30.0867 11.8049C28.4283 15.7166 25.2767 20.7833 24.08 20.0083C22.8283 19.1999 23.4017 15.9983 23.4967 11.2399C23.5217 9.98325 23.515 9.12159 21.595 8.67492C20.5467 8.43325 19.5267 8.33325 18.58 8.33325C14.7917 8.33325 12.1783 9.92159 13.6633 10.1983C16.2817 10.6866 16.03 16.3516 15.42 18.7983C14.3567 23.0583 10.36 15.4249 8.695 11.6233C8.29333 10.7099 8.17 9.99992 6.73667 9.99992H1.31167C0.491667 9.99992 0 10.2666 0 10.8599C0 11.8633 4.93333 22.0599 9.64333 27.1433C14.2367 32.1016 18.7767 31.6566 21.9367 31.6566Z" fill="#4770FF"/>
</g>
<defs>
<clipPath id="clip0_1_100">
<rect width="40" height="40" fill="white"/>
</clipPath>
</defs>
</svg>
